HIERARCHY
ROOT Hips
{
	OFFSET 0.00000 0.00000 0.00000
	CHANNELS 6 Xposition Yposition Zposition Zrotation Yrotation Xrotation 
	JOINT LHipJoint
	{
		OFFSET 0 0 0
		CHANNELS 3 Zrotation Yrotation Xrotation
		JOINT LeftUpLeg
		{
			OFFSET 1.85590 -1.73949 0.84976
			CHANNELS 3 Zrotation Yrotation Xrotation
			JOINT LeftLeg
			{
				OFFSET 2.36836 -6.50702 0.00000
				CHANNELS 3 Zrotation Yrotation Xrotation
				JOINT LeftFoot
				{
					OFFSET 2.53268 -6.95849 0.00000
					CHANNELS 3 Zrotation Yrotation Xrotation
					JOINT LeftToeBase
					{
						OFFSET 0.15935 -0.43781 1.94506
						CHANNELS 3 Zrotation Yrotation Xrotation
						End Site
						{
							OFFSET 0.00000 -0.00000 1.00661
						}
					}
				}
			}
		}
	}
	JOINT RHipJoint
	{
		OFFSET 0 0 0
		CHANNELS 3 Zrotation Yrotation Xrotation
		JOINT RightUpLeg
		{
			OFFSET -1.68297 -1.73949 0.84976
			CHANNELS 3 Zrotation Yrotation Xrotation
			JOINT RightLeg
			{
				OFFSET -2.44709 -6.72334 0.00000
				CHANNELS 3 Zrotation Yrotation Xrotation
				JOINT RightFoot
				{
					OFFSET -2.43843 -6.69953 0.00000
					CHANNELS 3 Zrotation Yrotation Xrotation
					JOINT RightToeBase
					{
						OFFSET -0.20854 -0.57295 2.02172
						CHANNELS 3 Zrotation Yrotation Xrotation
						End Site
						{
							OFFSET -0.00000 -0.00000 1.05594
						}
					}
				}
			}
		}
	}
	JOINT LowerBack
	{
		OFFSET 0 0 0
		CHANNELS 3 Zrotation Yrotation Xrotation
		JOINT Spine
		{
			OFFSET -0.01560 2.23971 -0.03712
			CHANNELS 3 Zrotation Yrotation Xrotation
			JOINT Spine1
			{
				OFFSET 0.05490 2.19225 -0.19086
				CHANNELS 3 Zrotation Yrotation Xrotation
				JOINT Neck
				{
					OFFSET 0 0 0
					CHANNELS 3 Zrotation Yrotation Xrotation
					JOINT Neck1
					{
						OFFSET -0.12403 1.43168 0.27585
						CHANNELS 3 Zrotation Yrotation Xrotation
						JOINT Head
						{
							OFFSET 0.17855 1.46173 -0.32578
							CHANNELS 3 Zrotation Yrotation Xrotation
							End Site
							{
								OFFSET 0.07217 1.51590 -0.14537
							}
						}
					}
				}
				JOINT LeftShoulder
				{
					OFFSET 0 0 0
					CHANNELS 3 Zrotation Yrotation Xrotation
					JOINT LeftArm
					{
						OFFSET 3.27650 0.85634 0.05396
						CHANNELS 3 Zrotation Yrotation Xrotation
						JOINT LeftForeArm
						{
							OFFSET 4.96755 -0.00000 0.00000
							CHANNELS 3 Zrotation Yrotation Xrotation
							JOINT LeftHand
							{
								OFFSET 3.35751 -0.00000 0.00000
								CHANNELS 3 Zrotation Yrotation Xrotation
								JOINT LeftFingerBase
								{
									OFFSET 0 0 0
									CHANNELS 3 Zrotation Yrotation Xrotation
									JOINT LeftHandIndex1
									{
										OFFSET 0.79697 -0.00000 0.00000
										CHANNELS 3 Zrotation Yrotation Xrotation
										End Site
										{
											OFFSET 0.64254 -0.00000 0.00000
										}
									}
								}
								JOINT LThumb
								{
									OFFSET 0 0 0
									CHANNELS 3 Zrotation Yrotation Xrotation
									End Site
									{
										OFFSET 0.65235 -0.00000 0.65235
									}
								}
							}
						}
					}
				}
				JOINT RightShoulder
				{
					OFFSET 0 0 0
					CHANNELS 3 Zrotation Yrotation Xrotation
					JOINT RightArm
					{
						OFFSET -3.24434 1.02034 0.34688
						CHANNELS 3 Zrotation Yrotation Xrotation
						JOINT RightForeArm
						{
							OFFSET -5.21859 -0.00000 -0.00000
							CHANNELS 3 Zrotation Yrotation Xrotation
							JOINT RightHand
							{
								OFFSET -3.36504 -0.00000 0.00000
								CHANNELS 3 Zrotation Yrotation Xrotation
								JOINT RightFingerBase
								{
									OFFSET 0 0 0
									CHANNELS 3 Zrotation Yrotation Xrotation
									JOINT RightHandIndex1
									{
										OFFSET -0.62044 -0.00000 0.00000
										CHANNELS 3 Zrotation Yrotation Xrotation
										End Site
										{
											OFFSET -0.50022 -0.00000 0.00000
										}
									}
								}
								JOINT RThumb
								{
									OFFSET 0 0 0
									CHANNELS 3 Zrotation Yrotation Xrotation
									End Site
									{
										OFFSET -0.50786 -0.00000 0.50786
									}
								}
							}
						}
					}
				}
			}
		}
	}
}
MOTION
Frames: 16
Frame Time: .0083333
8.3992 16.4663 -2.3925 -7.5369 -7.9499 10.0992 0.0000 0.0000 0.0000 -6.0542 -11.2215 -43.3529 1.1321 6.7578 18.9998 0.7936 4.5766 -19.0964 0.7049 -5.3664 -14.9567 0.0000 0.0000 0.0000 29.8291 -4.2105 19.7402 0.0000 0.0000 -0.0000 0.0480 5.4047 5.9688 -0.8633 5.9248 -16.5664 6.0532 3.2422 -6.3666 3.7984 3.7430 -0.3225 0.8981 1.9198 3.3693 -12.9826 -2.8281 -21.0891 7.1064 -1.4875 21.4035 4.5005 -0.8874 10.5172 0.0000 -0.0000 0.0000 -82.3345 22.1244 36.9013 11.4642 -18.9962 -1.9243 -0.0000 -0.0000 2.5714 9.8345 -24.2366 -4.0704 -7.1250 0.0000 -0.0000 -11.9845 5.8691 10.9440 0.0000 -0.0000 0.0000 77.2769 14.8804 57.7474 -31.0348 41.7641 -12.0930 0.0000 -0.0000 -19.7188 -39.6042 -14.9393 12.0407 7.1250 -0.0000 -0.0000 -11.8620 -48.7143 1.1009
8.4073 16.4337 -2.0550 -7.7144 -8.0445 9.8311 0.0000 0.0000 0.0000 -6.2595 -10.9074 -43.3840 1.2726 7.1498 20.1598 0.8602 3.5757 -19.1654 0.8043 -5.7237 -15.9848 0.0000 0.0000 0.0000 29.5346 -4.8397 20.9479 0.0000 -0.0000 0.0000 -0.0680 3.8772 7.8250 -0.6607 5.1986 -14.4757 6.1238 3.2728 -6.2830 3.8670 3.7829 -0.3090 0.9296 1.9398 3.3378 -12.5869 -2.8026 -20.9412 6.6126 -1.4757 21.3512 4.2508 -0.9097 10.4636 0.0000 -0.0000 0.0000 -82.5615 22.7444 35.8788 11.0188 -18.3171 -1.7818 -0.0000 -0.0000 3.2881 8.8351 -24.0387 -3.6230 -7.1250 0.0000 -0.0000 -12.5906 6.1685 11.4515 0.0000 -0.0000 0.0000 77.3137 14.6605 57.6830 -31.3011 41.9829 -12.2708 0.0000 -0.0000 -19.3102 -38.2011 -13.6943 10.5535 7.1250 -0.0000 -0.0000 -10.3677 -46.9382 0.5011
8.4189 16.4012 -1.7003 -7.7748 -8.1567 9.6341 0.0000 0.0000 0.0000 -6.6237 -10.6410 -43.3960 1.4655 7.6506 21.6577 0.8576 2.2891 -18.4639 0.6181 -5.0313 -13.9980 0.0000 0.0000 0.0000 29.0470 -5.3918 22.0721 0.0000 0.0000 -0.0000 -0.1881 2.4972 9.5075 -0.7247 5.4397 -15.1669 6.2625 3.3466 -6.7052 3.7614 3.8226 -0.1358 0.7833 1.9711 3.7732 -11.8325 -2.7771 -20.6102 5.8422 -1.5282 20.9555 3.8227 -0.9585 10.2530 -0.0000 0.0000 0.0000 -82.5685 23.0324 34.8596 10.6371 -17.7299 -1.6637 -0.0000 -0.0000 3.9295 8.3451 -23.8593 -3.3956 -7.1250 0.0000 -0.0000 -12.8870 6.3935 11.6784 -0.0000 0.0000 0.0000 77.4845 14.7424 57.5466 -31.3448 42.0185 -12.3000 0.0000 -0.0000 -18.9457 -37.6570 -13.5025 10.2140 7.1250 -0.0000 -0.0000 -9.8221 -46.6139 0.3949
8.4346 16.3705 -1.3505 -7.8047 -8.0922 9.5032 0.0000 0.0000 0.0000 -6.8841 -10.7133 -43.5463 1.7153 8.2461 23.4641 0.6981 1.6345 -16.4571 0.4487 -4.2977 -11.9156 0.0000 0.0000 0.0000 28.5496 -6.0264 22.9841 0.0000 0.0000 -0.0000 -0.3415 0.9610 11.4295 -0.9244 6.1254 -17.1488 6.2575 3.2742 -6.8082 3.7832 3.7278 -0.3179 0.7968 1.9190 3.6357 -11.8109 -2.6304 -20.0740 5.8796 -1.4091 20.8725 3.8460 -0.9012 10.1115 -0.0000 -0.0000 0.0000 -82.9091 23.6467 33.3258 10.1476 -16.9701 -1.5177 -0.0000 -0.0000 5.0183 7.8089 -23.5502 -3.1364 -7.1250 0.0000 -0.0000 -13.2115 6.7477 11.8963 -0.0000 -0.0000 0.0000 77.6627 14.3134 57.5580 -31.1389 41.8498 -12.1624 0.0000 -0.0000 -18.3578 -38.1204 -12.9926 10.0049 7.1250 -0.0000 -0.0000 -10.2486 -46.0686 0.2731
8.4457 16.3517 -1.0163 -8.1166 -8.0563 9.3853 0.0000 0.0000 0.0000 -6.8230 -10.6029 -43.8432 1.9889 8.8429 25.3050 0.3951 2.3114 -12.9457 0.4916 -4.4955 -12.4750 0.0000 0.0000 0.0000 28.3908 -6.5787 23.8274 0.0000 0.0000 -0.0000 -0.5923 -1.5739 14.0830 -0.8346 5.8278 -16.2855 6.5099 3.2538 -6.7881 3.8773 3.6827 -0.3752 0.7471 1.8977 3.5730 -11.9762 -2.5753 -20.0268 6.1489 -1.3542 20.9152 3.9802 -0.8589 10.1145 0.0000 0.0000 0.0000 -83.0986 23.8610 32.6078 9.6994 -16.2681 -1.3896 -0.0000 -0.0000 5.3109 7.4395 -23.0870 -2.9312 -7.1250 0.0000 -0.0000 -13.4349 7.2343 11.9788 0.0000 0.0000 0.0000 77.8712 13.9269 57.3071 -30.9659 41.7070 -12.0471 0.0000 -0.0000 -17.7753 -38.8773 -12.3677 9.7976 7.1250 -0.0000 -0.0000 -10.9410 -45.4221 0.1154
8.4581 16.3409 -0.6438 -7.2929 -8.6157 8.7790 0.0000 0.0000 0.0000 -8.1596 -10.1515 -43.4508 2.3002 9.4652 27.2617 0.1536 3.3621 -9.4273 0.5798 -4.8760 -13.5553 0.0000 0.0000 0.0000 27.2705 -5.7721 21.6353 -0.1659 -2.6240 7.2336 -0.6399 -1.7675 14.6102 -0.6084 4.9926 -13.8874 5.7109 3.3259 -6.8695 3.6069 3.8317 -0.1601 0.9368 1.9681 3.8137 -11.8141 -2.6533 -20.3549 6.0234 -1.4461 21.2434 3.9042 -0.9078 10.3012 0.0000 0.0000 0.0000 -83.2005 24.0184 32.1774 9.4260 -15.8368 -1.3140 -0.0000 -0.0000 5.0717 7.0688 -22.4610 -2.7124 -7.1250 0.0000 -0.0000 -13.6625 7.8779 12.0169 0.0000 0.0000 0.0000 78.0762 13.4931 57.0114 -30.8517 41.6123 -11.9712 0.0000 -0.0000 -17.3659 -39.9870 -12.6740 10.4267 7.1250 -0.0000 -0.0000 -12.0469 -45.9812 0.2960
8.4544 16.3156 -0.3575 -6.7262 -8.5470 8.4636 0.0000 0.0000 0.0000 -8.8610 -10.1341 -43.6700 2.6259 10.0632 29.1818 0.0113 4.2668 -6.5119 0.6174 -5.0287 -13.9904 0.0000 0.0000 0.0000 26.7500 -5.5330 19.2559 -0.5416 -4.7150 13.0975 -0.7660 -2.0536 15.9657 -0.7998 5.7079 -15.9393 4.8702 3.1704 -6.2153 3.4842 3.7619 -0.3865 1.2137 1.9129 3.1622 -11.8944 -2.6754 -20.0508 6.1698 -1.5296 21.2842 3.9586 -0.9398 10.2692 -0.0000 -0.0000 0.0000 -83.6425 24.3913 30.0881 9.2003 -15.4791 -1.2530 -0.0000 -0.0000 6.2277 5.7588 -21.5518 -2.1216 -7.1250 0.0000 -0.0000 -14.4819 8.8696 12.4925 -0.0000 -0.0000 0.0000 78.4328 12.8963 56.7107 -30.4707 41.2935 -11.7190 0.0000 -0.0000 -16.9065 -40.4019 -13.3264 11.0994 7.1250 -0.0000 -0.0000 -12.5217 -46.8649 0.5852
8.4657 16.2980 -0.0419 -5.4339 -8.5266 8.1537 0.0000 0.0000 0.0000 -10.5993 -10.0471 -43.5955 2.9703 10.6468 31.0976 -0.0459 5.0063 -5.2977 0.5973 -4.9477 -13.7595 0.0000 0.0000 0.0000 25.0139 -5.8829 16.9402 -1.0928 -6.6431 18.6623 -0.8709 -1.4896 17.1944 -1.2141 6.9898 -19.6850 3.3698 2.9288 -6.0109 3.2193 3.5782 -0.5799 1.7326 1.8021 2.7683 -12.1721 -2.5491 -20.0065 6.5649 -1.3788 21.6710 4.1822 -0.8567 10.3887 -0.0000 -0.0000 0.0000 -84.2464 24.8196 28.1495 8.9837 -15.1344 -1.1959 -0.0000 -0.0000 7.2356 7.0900 -22.1038 -2.6796 -7.1250 0.0000 -0.0000 -13.6501 8.2243 11.9093 -0.0000 -0.0000 0.0000 78.8229 12.4292 56.5412 -29.8168 40.7358 -11.2899 0.0000 -0.0000 -16.4466 -41.0913 -13.8815 11.8173 7.1250 -0.0000 -0.0000 -13.2748 -47.6829 0.8937
8.4679 16.2894 0.2648 -4.0391 -8.4759 7.9604 0.0000 0.0000 0.0000 -12.5585 -9.7848 -43.5002 3.2680 11.1167 32.6744 -0.0775 5.3183 -4.0646 0.4783 -4.4351 -12.3040 0.0000 0.0000 0.0000 23.2545 -5.9627 14.4015 -1.8566 -8.5608 24.4307 -0.9913 -1.9957 18.2533 -1.2282 7.0287 -19.8004 1.6575 2.6638 -5.9593 2.9690 3.3551 -0.6792 2.4009 1.6754 2.5538 -12.4846 -2.4759 -20.9257 6.9646 -1.1745 22.6720 4.4511 -0.7565 10.9100 0.0000 0.0000 0.0000 -84.7389 24.9562 27.1254 8.8387 -14.9029 -1.1583 -0.0000 -0.0000 7.4095 7.8024 -22.2455 -2.9695 -7.1250 0.0000 -0.0000 -13.2079 8.0234 11.5546 0.0000 0.0000 0.0000 79.1804 12.2831 56.4428 -29.0034 40.0237 -10.7629 0.0000 -0.0000 -15.9703 -42.5149 -14.1950 12.6707 7.1250 -0.0000 -0.0000 -14.7721 -48.3508 1.2463
8.4762 16.2694 0.5797 -3.4880 -8.6749 7.4087 0.0000 0.0000 0.0000 -13.5504 -9.2670 -42.9409 3.5552 11.5438 34.1365 -0.0779 5.1535 -3.4272 0.3284 -3.6833 -10.1872 0.0000 0.0000 0.0000 22.4449 -5.6503 12.5960 -2.7638 -10.3025 29.9621 -1.1257 -3.5230 19.1918 -1.1618 6.8428 -19.2506 1.1346 2.6320 -5.6244 2.7866 3.3592 -0.5514 2.4907 1.6737 2.4791 -12.5639 -2.4893 -21.3192 7.1802 -1.1777 22.9910 4.5596 -0.7419 11.1047 0.0000 0.0000 0.0000 -84.9418 24.7874 26.1990 8.8042 -14.8478 -1.1494 -0.0000 -0.0000 7.6112 7.5623 -21.6199 -2.8004 -7.1250 0.0000 -0.0000 -13.3575 8.6559 11.5211 0.0000 0.0000 0.0000 79.6563 11.9176 56.0510 -28.3631 39.4484 -10.3536 0.0000 -0.0000 -15.5894 -42.7520 -14.9110 13.3808 7.1250 -0.0000 -0.0000 -15.1280 -49.3046 1.6396
8.4888 16.2594 0.9045 -2.2873 -8.7517 6.9430 0.0000 0.0000 0.0000 -15.3143 -8.9649 -42.2514 3.8037 11.8945 35.3598 -0.0388 4.1546 -3.9112 0.1846 -2.7676 -7.6323 0.0000 0.0000 0.0000 20.8502 -5.6006 10.6812 -3.7968 -11.8850 35.3262 -1.1512 -4.8467 19.2503 -1.4502 7.6122 -21.5423 0.0911 2.5425 -5.6246 2.3746 3.3159 -0.4907 2.6473 1.6433 2.5082 -12.4334 -2.4391 -21.0129 7.1382 -1.1778 22.7861 4.5120 -0.7339 10.9682 -0.0000 -0.0000 0.0000 -84.9635 24.6912 26.0544 8.8364 -14.8993 -1.1577 -0.0000 -0.0000 7.5504 7.9087 -21.4074 -2.9026 -7.1250 0.0000 -0.0000 -13.1413 8.8336 11.2761 -0.0000 -0.0000 0.0000 80.1645 11.1985 55.4349 -27.9083 39.0317 -10.0659 0.0000 -0.0000 -15.4571 -42.4604 -16.1344 14.2672 7.1250 -0.0000 -0.0000 -14.9986 -50.7806 2.1785
8.4956 16.2675 1.2110 -0.9603 -8.7688 6.5517 0.0000 0.0000 0.0000 -17.3173 -8.4009 -41.5523 4.0062 12.1687 36.3313 0.0084 2.8185 -4.4872 0.0817 -1.8436 -5.0737 0.0000 0.0000 0.0000 19.2414 -5.4867 8.6746 -4.9299 -13.3044 40.5190 -1.0354 -6.8698 18.1640 -1.8798 8.6110 -24.5860 -1.1977 2.4011 -5.4646 1.9835 3.2195 -0.4897 2.9496 1.5860 2.3754 -12.6247 -2.4023 -20.8849 7.2414 -1.1079 22.8345 4.5939 -0.7091 10.9558 -0.0000 0.0000 0.0000 -85.0092 24.6105 26.6113 8.7327 -14.7335 -1.1312 -0.0000 -0.0000 7.7699 10.5442 -22.6169 -4.0944 -7.1250 0.0000 -0.0000 -11.5082 7.3912 10.1442 -0.0000 0.0000 0.0000 80.6188 10.4900 54.9640 -27.4324 38.5884 -9.7676 0.0000 -0.0000 -15.9335 -42.7314 -15.9345 14.2310 7.1250 -0.0000 -0.0000 -15.2622 -50.5893 2.1454
8.5034 16.2859 1.5003 0.0719 -8.8743 6.1652 0.0000 0.0000 0.0000 -19.0008 -7.6525 -40.6641 4.1353 12.3382 36.9393 0.0356 2.1088 -4.9763 0.0262 -1.0448 -2.8722 0.0000 0.0000 0.0000 18.0399 -5.1185 6.8567 -6.1256 -14.5489 45.4837 -0.7271 -10.0302 15.7352 -2.0330 8.9345 -25.5906 -2.1438 2.3125 -5.1346 1.6608 3.1629 -0.3938 3.1291 1.5510 2.2600 -12.8497 -2.3820 -20.7901 7.3400 -1.0394 22.6585 4.6718 -0.6818 10.8667 -0.0000 0.0000 0.0000 -85.0995 23.9416 26.5569 8.8893 -14.9839 -1.1713 -0.0000 -0.0000 6.3296 9.6303 -21.8633 -3.6156 -7.1250 0.0000 -0.0000 -12.0656 8.2274 10.4556 -0.0000 0.0000 0.0000 81.0525 10.0081 54.6137 -26.8861 38.0703 -9.4288 0.0000 -0.0000 -16.8424 -43.2762 -15.1285 13.8060 7.1250 -0.0000 -0.0000 -15.7180 -49.6901 1.8584
8.5177 16.3072 1.7996 1.3164 -9.1656 5.8205 0.0000 0.0000 0.0000 -20.8836 -6.9140 -39.5655 4.2168 12.4435 37.3194 0.0707 1.6411 -5.9101 0.0095 -0.6279 -1.7255 0.0000 0.0000 0.0000 16.4629 -4.7729 5.1137 -7.3592 -15.6271 50.2203 -0.2318 -13.0342 11.8612 -1.6013 7.9810 -22.6565 -3.2402 2.2401 -5.0609 1.2881 3.1379 -0.2748 3.3574 1.5266 2.3056 -12.7640 -2.2992 -20.6992 7.2109 -0.9251 22.4445 4.6175 -0.6332 10.7561 0.0000 -0.0000 0.0000 -85.2284 23.3393 26.7551 8.9942 -15.1511 -1.1986 -0.0000 -0.0000 6.0361 10.3716 -21.9093 -3.9068 -7.1250 0.0000 -0.0000 -11.6021 8.1086 10.0637 0.0000 -0.0000 0.0000 81.4772 9.5097 54.0169 -26.2827 37.4865 -9.0592 0.0000 -0.0000 -17.0731 -43.5436 -15.3383 14.1117 7.1250 -0.0000 -0.0000 -16.0396 -50.0139 2.0284
8.5369 16.3397 2.1049 2.4801 -9.4190 5.5128 0.0000 0.0000 0.0000 -22.5759 -6.3459 -38.2728 4.2604 12.4991 37.5214 0.1301 0.9125 -7.2097 0.0004 -0.1294 -0.3556 0.0000 0.0000 0.0000 15.0072 -4.6850 2.5500 -8.5605 -16.5164 54.5575 -0.0467 -13.9180 10.3196 -2.3821 9.6204 -27.7559 -4.1493 2.1709 -5.0827 0.9068 3.1096 -0.1863 3.4750 1.5009 2.3849 -12.4285 -2.2120 -20.8777 6.8793 -0.8037 22.5488 4.4606 -0.5905 10.8120 0.0000 0.0000 0.0000 -85.2282 22.7960 27.8037 9.1215 -15.3538 -1.2321 -0.0000 -0.0000 5.3574 11.6931 -22.0637 -4.4454 -7.1250 0.0000 -0.0000 -10.7773 7.8172 9.3832 0.0000 0.0000 0.0000 81.9732 8.7953 53.1388 -25.7056 36.9165 -8.7102 0.0000 -0.0000 -16.8969 -43.5546 -15.6405 14.3771 7.1250 -0.0000 -0.0000 -16.1043 -50.3996 2.1926
8.5560 16.3743 2.3848 3.0670 -9.5063 5.3739 0.0000 0.0000 0.0000 -23.5437 -5.9569 -37.1053 4.2697 12.5109 37.5643 0.1914 0.2850 -8.3723 0.0025 0.3218 0.8841 0.0000 0.0000 0.0000 14.3431 -4.2224 0.2889 -9.7094 -17.2431 58.5125 0.3177 -15.3186 6.8631 -1.8869 8.6264 -24.6335 -4.4481 2.0912 -5.0516 0.6648 3.0283 -0.0521 3.3897 1.4522 2.5114 -12.0052 -2.1090 -21.2005 6.4079 -0.6314 22.5531 4.2426 -0.5303 10.8535 0.0000 -0.0000 0.0000 -85.1702 21.9171 29.3950 9.1938 -15.4688 -1.2513 -0.0000 -0.0000 4.1121 13.5831 -22.3671 -5.2532 -7.1250 0.0000 -0.0000 -9.6028 7.2994 8.4272 0.0000 -0.0000 0.0000 82.5180 8.2441 52.2485 -25.0736 36.2791 -8.3334 0.0000 -0.0000 -16.8986 -43.6632 -16.1962 14.9068 7.1250 -0.0000 -0.0000 -16.3205 -51.1270 2.5205
